{
    "asset" : {
        "generator" : "Khronos glTF Blender I/O v1.5.17",
        "version" : "2.0"
    },
    "scene" : 0,
    "scenes" : [
        {
            "name" : "Arm_Chair",
            "nodes" : [
                1,
                5,
                6
            ]
        }
    ],
    "nodes" : [
        {
            "name" : "TurnTableCamera",
            "rotation" : [
                0.4829629063606262,
                -0.2241438627243042,
                0.1294095367193222,
                0.8365163207054138
            ],
            "translation" : [
                -2.267359972000122,
                2.618121862411499,
                3.927182674407959
            ]
        },
        {
            "children" : [
                0
            ],
            "name" : "CameraPreset",
            "translation" : [
                0,
                1.4550501108169556,
                0.04884999990463257
            ]
        },
        {
            "name" : "BackLight",
            "rotation" : [
                -0.09426166117191315,
                -0.5286204218864441,
                0.5286204218864441,
                0.6574462652206421
            ],
            "translation" : [
                -19.26189422607422,
                13.695383071899414,
                -22.089326858520508
            ]
        },
        {
            "name" : "FillLight",
            "rotation" : [
                0.18451330065727234,
                0.38790223002433777,
                -0.38790223002433777,
                0.81548672914505
            ],
            "translation" : [
                48.22099304199219,
                39.21885681152344,
                0
            ]
        },
        {
            "name" : "KeyLight",
            "rotation" : [
                0.34885695576667786,
                -0.21351519227027893,
                0.21351522207260132,
                0.8871986269950867
            ],
            "translation" : [
                -17.075407028198242,
                21.526342391967773,
                17.075407028198242
            ]
        },
        {
            "children" : [
                2,
                3,
                4
            ],
            "name" : "LightPreset",
            "translation" : [
                0,
                1.4550501108169556,
                0.04884999990463257
            ]
        },
        {
            "mesh" : 0,
            "name" : "Arm_Chair",
            "translation" : [
                0,
                0.2752000093460083,
                0
            ]
        }
    ],
    "animations" : [
        {
            "channels" : [
                {
                    "sampler" : 0,
                    "target" : {
                        "node" : 1,
                        "path" : "scale"
                    }
                },
                {
                    "sampler" : 1,
                    "target" : {
                        "node" : 1,
                        "path" : "translation"
                    }
                },
                {
                    "sampler" : 2,
                    "target" : {
                        "node" : 1,
                        "path" : "rotation"
                    }
                }
            ],
            "name" : "CameraPresetAction",
            "samplers" : [
                {
                    "input" : 4,
                    "interpolation" : "LINEAR",
                    "output" : 5
                },
                {
                    "input" : 4,
                    "interpolation" : "LINEAR",
                    "output" : 6
                },
                {
                    "input" : 4,
                    "interpolation" : "LINEAR",
                    "output" : 7
                }
            ]
        }
    ],
    "materials" : [
        {
            "doubleSided" : true,
            "name" : "Arm_Chair_Default",
            "pbrMetallicRoughness" : {
                "baseColorFactor" : [
                    0.3764705955982208,
                    0.062745101749897,
                    0.062745101749897,
                    1
                ],
                "metallicFactor" : 0,
                "roughnessFactor" : 0.5
            }
        }
    ],
    "meshes" : [
        {
            "name" : "Arm_Chair",
            "primitives" : [
                {
                    "attributes" : {
                        "POSITION" : 0,
                        "NORMAL" : 1,
                        "TEXCOORD_0" : 2
                    },
                    "indices" : 3,
                    "material" : 0
                }
            ]
        }
    ],
    "accessors" : [
        {
            "bufferView" : 0,
            "componentType" : 5126,
            "count" : 1976,
            "max" : [
                1.6174999475479126,
                2.359800100326538,
                0.8828999996185303
            ],
            "min" : [
                -1.6174999475479126,
                -9.999999747378752e-05,
                -0.7851999998092651
            ],
            "type" : "VEC3"
        },
        {
            "bufferView" : 1,
            "componentType" : 5126,
            "count" : 1976,
            "type" : "VEC3"
        },
        {
            "bufferView" : 2,
            "componentType" : 5126,
            "count" : 1976,
            "type" : "VEC2"
        },
        {
            "bufferView" : 3,
            "componentType" : 5123,
            "count" : 4620,
            "type" : "SCALAR"
        },
        {
            "bufferView" : 4,
            "componentType" : 5126,
            "count" : 361,
            "max" : [
                12.413793103448276
            ],
            "min" : [
                0
            ],
            "type" : "SCALAR"
        },
        {
            "bufferView" : 5,
            "componentType" : 5126,
            "count" : 361,
            "type" : "VEC3"
        },
        {
            "bufferView" : 6,
            "componentType" : 5126,
            "count" : 361,
            "type" : "VEC3"
        },
        {
            "bufferView" : 7,
            "componentType" : 5126,
            "count" : 361,
            "type" : "VEC4"
        }
    ],
    "bufferViews" : [
        {
            "buffer" : 0,
            "byteLength" : 23712,
            "byteOffset" : 0
        },
        {
            "buffer" : 0,
            "byteLength" : 23712,
            "byteOffset" : 23712
        },
        {
            "buffer" : 0,
            "byteLength" : 15808,
            "byteOffset" : 47424
        },
        {
            "buffer" : 0,
            "byteLength" : 9240,
            "byteOffset" : 63232
        },
        {
            "buffer" : 0,
            "byteLength" : 1444,
            "byteOffset" : 72472
        },
        {
            "buffer" : 0,
            "byteLength" : 4332,
            "byteOffset" : 73916
        },
        {
            "buffer" : 0,
            "byteLength" : 4332,
            "byteOffset" : 78248
        },
        {
            "buffer" : 0,
            "byteLength" : 5776,
            "byteOffset" : 82580
        }
    ],
    "buffers" : [
        {
            "byteLength" : 88356,
            "uri" : "data:application/octet-stream;base64,"
        }
    ]
}
