{
    "asset" : {
        "generator" : "Khronos glTF Blender I/O v1.5.17",
        "version" : "2.0"
    },
    "scene" : 0,
    "scenes" : [
        {
            "name" : "Flat_Screen_LCD_TV",
            "nodes" : [
                0,
                1,
                2,
                3,
                4,
                5
            ]
        }
    ],
    "nodes" : [
        {
            "mesh" : 0,
            "name" : "Buttons"
        },
        {
            "mesh" : 1,
            "name" : "LCD"
        },
        {
            "mesh" : 2,
            "name" : "Connectors"
        },
        {
            "mesh" : 3,
            "name" : "Back"
        },
        {
            "mesh" : 4,
            "name" : "Front_Bevel"
        },
        {
            "mesh" : 5,
            "name" : "Logo"
        }
    ],
    "materials" : [
        {
            "doubleSided" : true,
            "name" : "Black_Shiny",
            "pbrMetallicRoughness" : {
                "baseColorFactor" : [
                    0,
                    0,
                    0,
                    1
                ],
                "metallicFactor" : 0,
                "roughnessFactor" : 0.5
            }
        },
        {
            "doubleSided" : true,
            "name" : "GrayDark_Matte",
            "pbrMetallicRoughness" : {
                "baseColorFactor" : [
                    0.10999999940395355,
                    0.10999999940395355,
                    0.10999999940395355,
                    1
                ],
                "metallicFactor" : 0,
                "roughnessFactor" : 0.5
            }
        },
        {
            "doubleSided" : true,
            "name" : "Metallic",
            "pbrMetallicRoughness" : {
                "baseColorFactor" : [
                    0.3294117748737335,
                    0.3294117748737335,
                    0.3294117748737335,
                    1
                ],
                "metallicFactor" : 0,
                "roughnessFactor" : 0.5
            }
        },
        {
            "doubleSided" : true,
            "name" : "Black_Matte",
            "pbrMetallicRoughness" : {
                "baseColorFactor" : [
                    0.10999999940395355,
                    0.10999999940395355,
                    0.10999999940395355,
                    1
                ],
                "metallicFactor" : 0,
                "roughnessFactor" : 0.5
            }
        },
        {
            "doubleSided" : true,
            "name" : "White_Emissive",
            "pbrMetallicRoughness" : {
                "baseColorFactor" : [
                    0.1568627506494522,
                    0.1568627506494522,
                    0.1568627506494522,
                    1
                ],
                "metallicFactor" : 0,
                "roughnessFactor" : 0.5
            }
        }
    ],
    "meshes" : [
        {
            "name" : "Buttons",
            "primitives" : [
                {
                    "attributes" : {
                        "POSITION" : 0,
                        "NORMAL" : 1
                    },
                    "indices" : 2,
                    "material" : 0
                }
            ]
        },
        {
            "name" : "LCD",
            "primitives" : [
                {
                    "attributes" : {
                        "POSITION" : 3,
                        "NORMAL" : 4
                    },
                    "indices" : 5,
                    "material" : 1
                }
            ]
        },
        {
            "name" : "Connectors",
            "primitives" : [
                {
                    "attributes" : {
                        "POSITION" : 6,
                        "NORMAL" : 7
                    },
                    "indices" : 8,
                    "material" : 2
                }
            ]
        },
        {
            "name" : "Back",
            "primitives" : [
                {
                    "attributes" : {
                        "POSITION" : 9,
                        "NORMAL" : 10
                    },
                    "indices" : 11,
                    "material" : 3
                }
            ]
        },
        {
            "name" : "Front_Bevel",
            "primitives" : [
                {
                    "attributes" : {
                        "POSITION" : 12,
                        "NORMAL" : 13
                    },
                    "indices" : 14,
                    "material" : 0
                }
            ]
        },
        {
            "name" : "Logo",
            "primitives" : [
                {
                    "attributes" : {
                        "POSITION" : 15,
                        "NORMAL" : 16
                    },
                    "indices" : 17,
                    "material" : 4
                }
            ]
        }
    ],
    "accessors" : [
        {
            "bufferView" : 0,
            "componentType" : 5126,
            "count" : 144,
            "max" : [
                2.8492801189422607,
                1.0999699831008911,
                -0.001164159970358014
            ],
            "min" : [
                2.8062500953674316,
                0.38959699869155884,
                -0.03140589967370033
            ],
            "type" : "VEC3"
        },
        {
            "bufferView" : 1,
            "componentType" : 5126,
            "count" : 144,
            "type" : "VEC3"
        },
        {
            "bufferView" : 2,
            "componentType" : 5123,
            "count" : 792,
            "type" : "SCALAR"
        },
        {
            "bufferView" : 3,
            "componentType" : 5126,
            "count" : 4,
            "max" : [
                2.746619939804077,
                3.576280117034912,
                0.0785650983452797
            ],
            "min" : [
                -2.746619939804077,
                0.408268004655838,
                0.07856489717960358
            ],
            "type" : "VEC3"
        },
        {
            "bufferView" : 4,
            "componentType" : 5126,
            "count" : 4,
            "type" : "VEC3"
        },
        {
            "bufferView" : 5,
            "componentType" : 5123,
            "count" : 6,
            "type" : "SCALAR"
        },
        {
            "bufferView" : 6,
            "componentType" : 5126,
            "count" : 8360,
            "max" : [
                -1.1252100467681885,
                1.2542099952697754,
                -0.04316670075058937
            ],
            "min" : [
                -1.5445799827575684,
                0.8249549865722656,
                -0.09309100359678268
            ],
            "type" : "VEC3"
        },
        {
            "bufferView" : 7,
            "componentType" : 5126,
            "count" : 8360,
            "type" : "VEC3"
        },
        {
            "bufferView" : 8,
            "componentType" : 5123,
            "count" : 47016,
            "type" : "SCALAR"
        },
        {
            "bufferView" : 9,
            "componentType" : 5126,
            "count" : 4929,
            "max" : [
                2.8883700370788574,
                3.724030017852783,
                0.0499878004193306
            ],
            "min" : [
                -2.8883700370788574,
                0.26051801443099976,
                -0.18814300000667572
            ],
            "type" : "VEC3"
        },
        {
            "bufferView" : 10,
            "componentType" : 5126,
            "count" : 4929,
            "type" : "VEC3"
        },
        {
            "bufferView" : 11,
            "componentType" : 5123,
            "count" : 21876,
            "type" : "SCALAR"
        },
        {
            "bufferView" : 12,
            "componentType" : 5126,
            "count" : 151,
            "max" : [
                2.8827900886535645,
                3.718640089035034,
                0.08209899812936783
            ],
            "min" : [
                -2.8827900886535645,
                0.2659110128879547,
                0.008794359862804413
            ],
            "type" : "VEC3"
        },
        {
            "bufferView" : 13,
            "componentType" : 5126,
            "count" : 151,
            "type" : "VEC3"
        },
        {
            "bufferView" : 14,
            "componentType" : 5123,
            "count" : 420,
            "type" : "SCALAR"
        },
        {
            "bufferView" : 15,
            "componentType" : 5126,
            "count" : 3847,
            "max" : [
                0.30133500695228577,
                0.35740000009536743,
                0.08466040343046188
            ],
            "min" : [
                -0.30123499035835266,
                0.28841298818588257,
                0.08220779895782471
            ],
            "type" : "VEC3"
        },
        {
            "bufferView" : 16,
            "componentType" : 5126,
            "count" : 3847,
            "type" : "VEC3"
        },
        {
            "bufferView" : 17,
            "componentType" : 5123,
            "count" : 7620,
            "type" : "SCALAR"
        }
    ],
    "bufferViews" : [
        {
            "buffer" : 0,
            "byteLength" : 1728,
            "byteOffset" : 0
        },
        {
            "buffer" : 0,
            "byteLength" : 1728,
            "byteOffset" : 1728
        },
        {
            "buffer" : 0,
            "byteLength" : 1584,
            "byteOffset" : 3456
        },
        {
            "buffer" : 0,
            "byteLength" : 48,
            "byteOffset" : 5040
        },
        {
            "buffer" : 0,
            "byteLength" : 48,
            "byteOffset" : 5088
        },
        {
            "buffer" : 0,
            "byteLength" : 12,
            "byteOffset" : 5136
        },
        {
            "buffer" : 0,
            "byteLength" : 100320,
            "byteOffset" : 5148
        },
        {
            "buffer" : 0,
            "byteLength" : 100320,
            "byteOffset" : 105468
        },
        {
            "buffer" : 0,
            "byteLength" : 94032,
            "byteOffset" : 205788
        },
        {
            "buffer" : 0,
            "byteLength" : 59148,
            "byteOffset" : 299820
        },
        {
            "buffer" : 0,
            "byteLength" : 59148,
            "byteOffset" : 358968
        },
        {
            "buffer" : 0,
            "byteLength" : 43752,
            "byteOffset" : 418116
        },
        {
            "buffer" : 0,
            "byteLength" : 1812,
            "byteOffset" : 461868
        },
        {
            "buffer" : 0,
            "byteLength" : 1812,
            "byteOffset" : 463680
        },
        {
            "buffer" : 0,
            "byteLength" : 840,
            "byteOffset" : 465492
        },
        {
            "buffer" : 0,
            "byteLength" : 46164,
            "byteOffset" : 466332
        },
        {
            "buffer" : 0,
            "byteLength" : 46164,
            "byteOffset" : 512496
        },
        {
            "buffer" : 0,
            "byteLength" : 15240,
            "byteOffset" : 558660
        }
    ],
    "buffers" : [
        {
            "byteLength" : 573900,
            "uri" : "data:application/octet-stream;base64,"
        }
    ]
}
