{
    "asset" : {
        "generator" : "Khronos glTF Blender I/O v1.5.17",
        "version" : "2.0"
    },
    "scene" : 0,
    "scenes" : [
        {
            "name" : "Bag_Chair",
            "nodes" : [
                0
            ]
        }
    ],
    "nodes" : [
        {
            "mesh" : 0,
            "name" : "bag_chair",
            "rotation" : [
                -0.7071068286895752,
                0,
                0,
                0.7071068286895752
            ],
            "scale" : [
                0.018799999728798866,
                0.018799997866153717,
                0.018799997866153717
            ],
            "translation" : [
                0.013100000098347664,
                0.013500000350177288,
                0.006800000090152025
            ]
        }
    ],
    "materials" : [
        {
            "doubleSided" : true,
            "name" : "bag_chair",
            "pbrMetallicRoughness" : {
                "baseColorFactor" : [
                    0.4470588266849518,
                    0.4470588266849518,
                    0.4470588266849518,
                    1
                ],
                "metallicFactor" : 0,
                "roughnessFactor" : 0.5
            }
        }
    ],
    "meshes" : [
        {
            "name" : "bag_chair",
            "primitives" : [
                {
                    "attributes" : {
                        "POSITION" : 0,
                        "NORMAL" : 1,
                        "TEXCOORD_0" : 2
                    },
                    "indices" : 3,
                    "material" : 0
                }
            ]
        }
    ],
    "accessors" : [
        {
            "bufferView" : 0,
            "componentType" : 5126,
            "count" : 10503,
            "max" : [
                25.111690521240234,
                16.422924041748047,
                29.528776168823242
            ],
            "min" : [
                -25.111690521240234,
                -16.462196350097656,
                -1.3174762725830078
            ],
            "type" : "VEC3"
        },
        {
            "bufferView" : 1,
            "componentType" : 5126,
            "count" : 10503,
            "type" : "VEC3"
        },
        {
            "bufferView" : 2,
            "componentType" : 5126,
            "count" : 10503,
            "type" : "VEC2"
        },
        {
            "bufferView" : 3,
            "componentType" : 5123,
            "count" : 51168,
            "type" : "SCALAR"
        }
    ],
    "bufferViews" : [
        {
            "buffer" : 0,
            "byteLength" : 126036,
            "byteOffset" : 0
        },
        {
            "buffer" : 0,
            "byteLength" : 126036,
            "byteOffset" : 126036
        },
        {
            "buffer" : 0,
            "byteLength" : 84024,
            "byteOffset" : 252072
        },
        {
            "buffer" : 0,
            "byteLength" : 102336,
            "byteOffset" : 336096
        }
    ],
    "buffers" : [
        {
            "byteLength" : 438432,
            "uri" : "data:application/octet-stream;base64,"
        }
    ]
}
