<?xml version="1.0" encoding="UTF-8" standalone="no"?>
<svg
   xmlns:dc="http://purl.org/dc/elements/1.1/"
   xmlns:cc="http://creativecommons.org/ns#"
   xmlns:rdf="http://www.w3.org/1999/02/22-rdf-syntax-ns#"
   xmlns:svg="http://www.w3.org/2000/svg"
   xmlns="http://www.w3.org/2000/svg"
   xmlns:sodipodi="http://sodipodi.sourceforge.net/DTD/sodipodi-0.dtd"
   xmlns:inkscape="http://www.inkscape.org/namespaces/inkscape"
   version="1.0"
   width="840.000000pt"
   height="814.000000pt"
   viewBox="0 0 840.000000 814.000000"
   preserveAspectRatio="xMidYMid meet"
   id="svg10"
   sodipodi:docname="double_quote.svg"
   inkscape:version="1.0.2-2 (e86c870879, 2021-01-15)">
  <defs
     id="defs14" />
  <sodipodi:namedview
     pagecolor="#ffffff"
     bordercolor="#666666"
     borderopacity="1"
     objecttolerance="10"
     gridtolerance="10"
     guidetolerance="10"
     inkscape:pageopacity="0"
     inkscape:pageshadow="2"
     inkscape:window-width="1920"
     inkscape:window-height="986"
     id="namedview12"
     showgrid="false"
     inkscape:zoom="0.73710074"
     inkscape:cx="560"
     inkscape:cy="542.66667"
     inkscape:window-x="-11"
     inkscape:window-y="-11"
     inkscape:window-maximized="1"
     inkscape:current-layer="svg10" />
  <metadata
     id="metadata2">
Created by potrace 1.16, written by Peter Selinger 2001-2019
<rdf:RDF>
  <cc:Work
     rdf:about="">
    <dc:format>image/svg+xml</dc:format>
    <dc:type
       rdf:resource="http://purl.org/dc/dcmitype/StillImage" />
  </cc:Work>
</rdf:RDF>
</metadata>
  <g
     transform="translate(0.000000,814.000000) scale(0.100000,-0.100000)"
     fill="#000000"
     stroke="none"
     id="g8"
     style="fill:#ffe9ff;fill-opacity:1">
    <path
       d="M3005 7698 c-1050 -534 -1774 -1157 -2240 -1928 -310 -512 -502 -1129 -543 -1745 -5 -66 -6 -915 -4 -1888 l4 -1767 1702 2 1701 3 3 1703 2 1702 -892 0 -891 0 6 118 c24 435 178 915 419 1302 329 530 804 945 1552 1355 17 9 26 21 23 29 -14 35 -761 1146 -771 1146 -6 -1 -38 -15 -71 -32z"
       id="path4"
       style="fill:#ffe9ff;fill-opacity:1" />
    <path
       d="M7220 7631 c-650 -345 -1112 -678 -1520 -1097 -658 -676 -1016 -1430 -1126 -2374 -20 -169 -20 -129 -16 -2268 l2 -1522 1703 2 1702 3 3 1703 2 1702 -891 0 -892 0 6 158 c33 882 535 1672 1463 2305 144 98 400 254 492 301 35 18 50 31 46 39 -66 110 -768 1147 -777 1147 -6 0 -95 -44 -197 -99z"
       id="path6"
       style="fill:#ffe9ff;fill-opacity:1" />
  </g>
</svg>
