<?xml version="1.0" encoding="UTF-8" standalone="no"?>
<svg
   xmlns:dc="http://purl.org/dc/elements/1.1/"
   xmlns:cc="http://creativecommons.org/ns#"
   xmlns:rdf="http://www.w3.org/1999/02/22-rdf-syntax-ns#"
   xmlns:svg="http://www.w3.org/2000/svg"
   xmlns="http://www.w3.org/2000/svg"
   xmlns:sodipodi="http://sodipodi.sourceforge.net/DTD/sodipodi-0.dtd"
   xmlns:inkscape="http://www.inkscape.org/namespaces/inkscape"
   version="1.1"
   id="Capa_1"
   x="0px"
   y="0px"
   viewBox="0 0 230.17 230.17"
   style="enable-background:new 0 0 230.17 230.17;"
   xml:space="preserve"
   sodipodi:docname="email.svg"
   inkscape:version="1.0.2-2 (e86c870879, 2021-01-15)"><metadata
   id="metadata47"><rdf:RDF><cc:Work
       rdf:about=""><dc:format>image/svg+xml</dc:format><dc:type
         rdf:resource="http://purl.org/dc/dcmitype/StillImage" /></cc:Work></rdf:RDF></metadata><defs
   id="defs45" /><sodipodi:namedview
   pagecolor="#ffffff"
   bordercolor="#666666"
   borderopacity="1"
   objecttolerance="10"
   gridtolerance="10"
   guidetolerance="10"
   inkscape:pageopacity="0"
   inkscape:pageshadow="2"
   inkscape:window-width="1920"
   inkscape:window-height="986"
   id="namedview43"
   showgrid="false"
   inkscape:zoom="3.4756919"
   inkscape:cx="115.085"
   inkscape:cy="115.085"
   inkscape:window-x="-11"
   inkscape:window-y="-11"
   inkscape:window-maximized="1"
   inkscape:current-layer="Capa_1"
   inkscape:document-rotation="0" />
<g
   id="g10"
   style="fill:#000000;fill-opacity:1">
	<path
   d="M230,49.585c0-0.263,0.181-0.519,0.169-0.779l-70.24,67.68l70.156,65.518c0.041-0.468-0.085-0.94-0.085-1.418V49.585z"
   id="path2"
   style="fill:#000000;fill-opacity:1" />
	<path
   d="M149.207,126.901l-28.674,27.588c-1.451,1.396-3.325,2.096-5.2,2.096c-1.836,0-3.672-0.67-5.113-2.013l-28.596-26.647   L11.01,195.989c1.717,0.617,3.56,1.096,5.49,1.096h197.667c2.866,0,5.554-0.873,7.891-2.175L149.207,126.901z"
   id="path4"
   style="fill:#000000;fill-opacity:1" />
	<path
   d="M115.251,138.757L222.447,35.496c-2.427-1.443-5.252-2.411-8.28-2.411H16.5c-3.943,0-7.556,1.531-10.37,3.866   L115.251,138.757z"
   id="path6"
   style="fill:#000000;fill-opacity:1" />
	<path
   d="M0,52.1v128.484c0,1.475,0.339,2.897,0.707,4.256l69.738-67.156L0,52.1z"
   id="path8"
   style="fill:#000000;fill-opacity:1" />
</g>
<g
   id="g12">
</g>
<g
   id="g14">
</g>
<g
   id="g16">
</g>
<g
   id="g18">
</g>
<g
   id="g20">
</g>
<g
   id="g22">
</g>
<g
   id="g24">
</g>
<g
   id="g26">
</g>
<g
   id="g28">
</g>
<g
   id="g30">
</g>
<g
   id="g32">
</g>
<g
   id="g34">
</g>
<g
   id="g36">
</g>
<g
   id="g38">
</g>
<g
   id="g40">
</g>
</svg>
