{
    "asset" : {
        "generator" : "Khronos glTF Blender I/O v1.5.17",
        "version" : "2.0"
    },
    "scene" : 0,
    "scenes" : [
        {
            "name" : "Zanotta_Dama_sofa",
            "nodes" : [
                1,
                2,
                3,
                4,
                5,
                6
            ]
        }
    ],
    "nodes" : [
        {
            "name" : "TurnTableCamera",
            "rotation" : [
                0.3917483985424042,
                -0.37429606914520264,
                0.1785300374031067,
                0.8213176131248474
            ],
            "translation" : [
                -0.7368658185005188,
                0.7905774116516113,
                0.6406802535057068
            ]
        },
        {
            "children" : [
                0
            ],
            "name" : "CameraPreset",
            "translation" : [
                0,
                0.3698292076587677,
                0
            ]
        },
        {
            "mesh" : 0,
            "name" : "Zanotta_Dama_sofa",
            "rotation" : [
                -0.7071068286895752,
                0,
                0,
                0.7071068286895752
            ]
        },
        {
            "name" : "AreaLight2",
            "rotation" : [
                0.6223831176757812,
                -0.17319782078266144,
                -0.14371761679649353,
                0.7496580481529236
            ],
            "translation" : [
                0,
                0.6747000217437744,
                3.1189000606536865
            ]
        },
        {
            "name" : "AreaLight",
            "rotation" : [
                0.27059802412986755,
                -0.6532814502716064,
                0.6532815098762512,
                0.27059808373451233
            ],
            "translation" : [
                -2.759000062942505,
                0,
                -2.164400100708008
            ]
        },
        {
            "name" : "AreaLight1",
            "rotation" : [
                0.4126964807510376,
                0.41897454857826233,
                -0.5061209201812744,
                0.630859375
            ],
            "translation" : [
                2.9400999546051025,
                1.1377999782562256,
                -1.7797000408172607
            ]
        },
        {
            "name" : "PointLight",
            "rotation" : [
                0.7071068286895752,
                0,
                0,
                0.7071068286895752
            ],
            "translation" : [
                0,
                2.413300037384033,
                0
            ]
        }
    ],
    "animations" : [
        {
            "channels" : [
                {
                    "sampler" : 0,
                    "target" : {
                        "node" : 1,
                        "path" : "scale"
                    }
                },
                {
                    "sampler" : 1,
                    "target" : {
                        "node" : 1,
                        "path" : "translation"
                    }
                },
                {
                    "sampler" : 2,
                    "target" : {
                        "node" : 1,
                        "path" : "rotation"
                    }
                }
            ],
            "name" : "CameraPresetAction",
            "samplers" : [
                {
                    "input" : 12,
                    "interpolation" : "LINEAR",
                    "output" : 13
                },
                {
                    "input" : 12,
                    "interpolation" : "LINEAR",
                    "output" : 14
                },
                {
                    "input" : 12,
                    "interpolation" : "LINEAR",
                    "output" : 15
                }
            ]
        }
    ],
    "materials" : [
        {
            "doubleSided" : true,
            "name" : "leather",
            "pbrMetallicRoughness" : {
                "baseColorFactor" : [
                    1,
                    1,
                    1,
                    1
                ],
                "metallicFactor" : 0,
                "roughnessFactor" : 0.5
            }
        },
        {
            "doubleSided" : true,
            "name" : "LEG",
            "pbrMetallicRoughness" : {
                "baseColorFactor" : [
                    0.11764705926179886,
                    0.11764705926179886,
                    0.11764705926179886,
                    1
                ],
                "metallicFactor" : 0,
                "roughnessFactor" : 0.5
            }
        },
        {
            "doubleSided" : true,
            "name" : "LEGstopping",
            "pbrMetallicRoughness" : {
                "baseColorFactor" : [
                    0.14901961386203766,
                    0.14901961386203766,
                    0.14901961386203766,
                    1
                ],
                "metallicFactor" : 0,
                "roughnessFactor" : 0.5
            }
        }
    ],
    "meshes" : [
        {
            "name" : "Zanotta_Dama_sofa",
            "primitives" : [
                {
                    "attributes" : {
                        "POSITION" : 0,
                        "NORMAL" : 1,
                        "TEXCOORD_0" : 2
                    },
                    "indices" : 3,
                    "material" : 0
                },
                {
                    "attributes" : {
                        "POSITION" : 4,
                        "NORMAL" : 5,
                        "TEXCOORD_0" : 6
                    },
                    "indices" : 7,
                    "material" : 1
                },
                {
                    "attributes" : {
                        "POSITION" : 8,
                        "NORMAL" : 9,
                        "TEXCOORD_0" : 10
                    },
                    "indices" : 11,
                    "material" : 2
                }
            ]
        }
    ],
    "accessors" : [
        {
            "bufferView" : 0,
            "componentType" : 5126,
            "count" : 14518,
            "max" : [
                0.7192447781562805,
                0.3580869734287262,
                0.7396584153175354
            ],
            "min" : [
                -0.7192447781562805,
                -0.3580869734287262,
                0.25
            ],
            "type" : "VEC3"
        },
        {
            "bufferView" : 1,
            "componentType" : 5126,
            "count" : 14518,
            "type" : "VEC3"
        },
        {
            "bufferView" : 2,
            "componentType" : 5126,
            "count" : 14518,
            "type" : "VEC2"
        },
        {
            "bufferView" : 3,
            "componentType" : 5123,
            "count" : 81894,
            "type" : "SCALAR"
        },
        {
            "bufferView" : 4,
            "componentType" : 5126,
            "count" : 1472,
            "max" : [
                0.6973340511322021,
                0.3400000035762787,
                0.2600000202655792
            ],
            "min" : [
                -0.6973341107368469,
                -0.34000006318092346,
                0.00526164285838604
            ],
            "type" : "VEC3"
        },
        {
            "bufferView" : 5,
            "componentType" : 5126,
            "count" : 1472,
            "type" : "VEC3"
        },
        {
            "bufferView" : 6,
            "componentType" : 5126,
            "count" : 1472,
            "type" : "VEC2"
        },
        {
            "bufferView" : 7,
            "componentType" : 5123,
            "count" : 7080,
            "type" : "SCALAR"
        },
        {
            "bufferView" : 8,
            "componentType" : 5126,
            "count" : 664,
            "max" : [
                0.6973340511322021,
                0.3400000035762787,
                0.00526164285838604
            ],
            "min" : [
                -0.6973341107368469,
                -0.3400000333786011,
                -1.525878978725359e-08
            ],
            "type" : "VEC3"
        },
        {
            "bufferView" : 9,
            "componentType" : 5126,
            "count" : 664,
            "type" : "VEC3"
        },
        {
            "bufferView" : 10,
            "componentType" : 5126,
            "count" : 664,
            "type" : "VEC2"
        },
        {
            "bufferView" : 11,
            "componentType" : 5123,
            "count" : 3000,
            "type" : "SCALAR"
        },
        {
            "bufferView" : 12,
            "componentType" : 5126,
            "count" : 361,
            "max" : [
                12.413793103448276
            ],
            "min" : [
                0
            ],
            "type" : "SCALAR"
        },
        {
            "bufferView" : 13,
            "componentType" : 5126,
            "count" : 361,
            "type" : "VEC3"
        },
        {
            "bufferView" : 14,
            "componentType" : 5126,
            "count" : 361,
            "type" : "VEC3"
        },
        {
            "bufferView" : 15,
            "componentType" : 5126,
            "count" : 361,
            "type" : "VEC4"
        }
    ],
    "bufferViews" : [
        {
            "buffer" : 0,
            "byteLength" : 174216,
            "byteOffset" : 0
        },
        {
            "buffer" : 0,
            "byteLength" : 174216,
            "byteOffset" : 174216
        },
        {
            "buffer" : 0,
            "byteLength" : 116144,
            "byteOffset" : 348432
        },
        {
            "buffer" : 0,
            "byteLength" : 163788,
            "byteOffset" : 464576
        },
        {
            "buffer" : 0,
            "byteLength" : 17664,
            "byteOffset" : 628364
        },
        {
            "buffer" : 0,
            "byteLength" : 17664,
            "byteOffset" : 646028
        },
        {
            "buffer" : 0,
            "byteLength" : 11776,
            "byteOffset" : 663692
        },
        {
            "buffer" : 0,
            "byteLength" : 14160,
            "byteOffset" : 675468
        },
        {
            "buffer" : 0,
            "byteLength" : 7968,
            "byteOffset" : 689628
        },
        {
            "buffer" : 0,
            "byteLength" : 7968,
            "byteOffset" : 697596
        },
        {
            "buffer" : 0,
            "byteLength" : 5312,
            "byteOffset" : 705564
        },
        {
            "buffer" : 0,
            "byteLength" : 6000,
            "byteOffset" : 710876
        },
        {
            "buffer" : 0,
            "byteLength" : 1444,
            "byteOffset" : 716876
        },
        {
            "buffer" : 0,
            "byteLength" : 4332,
            "byteOffset" : 718320
        },
        {
            "buffer" : 0,
            "byteLength" : 4332,
            "byteOffset" : 722652
        },
        {
            "buffer" : 0,
            "byteLength" : 5776,
            "byteOffset" : 726984
        }
    ],
    "buffers" : [
        {
            "byteLength" : 732760,
            "uri" : "data:application/octet-stream;base64,"
        }
    ]
}
