{
    "asset" : {
        "generator" : "Khronos glTF Blender I/O v1.5.17",
        "version" : "2.0"
    },
    "scene" : 0,
    "scenes" : [
        {
            "name" : "Recliner_Sofa",
            "nodes" : [
                0,
                3
            ]
        }
    ],
    "nodes" : [
        {
            "name" : "DirectionalLight",
            "rotation" : [
                0.4033525586128235,
                0.029367586597800255,
                0.06642387807369232,
                0.9121579527854919
            ],
            "translation" : [
                -0.7985000014305115,
                2.5738000869750977,
                0.9898999929428101
            ]
        },
        {
            "mesh" : 0,
            "name" : "polySurface201"
        },
        {
            "mesh" : 1,
            "name" : "polySurface336"
        },
        {
            "children" : [
                1,
                2
            ],
            "name" : "group1",
            "scale" : [
                0.10000000149011612,
                0.10000000149011612,
                0.10000000149011612
            ]
        }
    ],
    "materials" : [
        {
            "doubleSided" : true,
            "name" : "Mechenism",
            "pbrMetallicRoughness" : {
                "baseColorFactor" : [
                    0,
                    0,
                    0,
                    1
                ],
                "metallicFactor" : 0,
                "roughnessFactor" : 0.5
            }
        },
        {
            "doubleSided" : true,
            "name" : "Sofa",
            "pbrMetallicRoughness" : {
                "baseColorFactor" : [
                    0.0117647061124444,
                    0.0117647061124444,
                    0.0117647061124444,
                    1
                ],
                "metallicFactor" : 0,
                "roughnessFactor" : 0.5
            }
        }
    ],
    "meshes" : [
        {
            "name" : "polySurface201",
            "primitives" : [
                {
                    "attributes" : {
                        "POSITION" : 0,
                        "NORMAL" : 1,
                        "TEXCOORD_0" : 2
                    },
                    "indices" : 3,
                    "material" : 0
                }
            ]
        },
        {
            "name" : "polySurface336",
            "primitives" : [
                {
                    "attributes" : {
                        "POSITION" : 4,
                        "NORMAL" : 5,
                        "TEXCOORD_0" : 6,
                        "TEXCOORD_1" : 7
                    },
                    "indices" : 8,
                    "material" : 1
                }
            ]
        }
    ],
    "accessors" : [
        {
            "bufferView" : 0,
            "componentType" : 5126,
            "count" : 20152,
            "max" : [
                9.225870132446289,
                4.765538215637207,
                10.061921119689941
            ],
            "min" : [
                -9.225870132446289,
                0.014984071254730225,
                -3.838340997695923
            ],
            "type" : "VEC3"
        },
        {
            "bufferView" : 1,
            "componentType" : 5126,
            "count" : 20152,
            "type" : "VEC3"
        },
        {
            "bufferView" : 2,
            "componentType" : 5126,
            "count" : 20152,
            "type" : "VEC2"
        },
        {
            "bufferView" : 3,
            "componentType" : 5123,
            "count" : 119832,
            "type" : "SCALAR"
        },
        {
            "bufferView" : 4,
            "componentType" : 5126,
            "count" : 17415,
            "max" : [
                12.23181438446045,
                16.320945739746094,
                10.702856063842773
            ],
            "min" : [
                -12.23181438446045,
                0.8581472635269165,
                -6.45530891418457
            ],
            "type" : "VEC3"
        },
        {
            "bufferView" : 5,
            "componentType" : 5126,
            "count" : 17415,
            "type" : "VEC3"
        },
        {
            "bufferView" : 6,
            "componentType" : 5126,
            "count" : 17415,
            "type" : "VEC2"
        },
        {
            "bufferView" : 7,
            "componentType" : 5126,
            "count" : 17415,
            "type" : "VEC2"
        },
        {
            "bufferView" : 8,
            "componentType" : 5123,
            "count" : 88326,
            "type" : "SCALAR"
        }
    ],
    "bufferViews" : [
        {
            "buffer" : 0,
            "byteLength" : 241824,
            "byteOffset" : 0
        },
        {
            "buffer" : 0,
            "byteLength" : 241824,
            "byteOffset" : 241824
        },
        {
            "buffer" : 0,
            "byteLength" : 161216,
            "byteOffset" : 483648
        },
        {
            "buffer" : 0,
            "byteLength" : 239664,
            "byteOffset" : 644864
        },
        {
            "buffer" : 0,
            "byteLength" : 208980,
            "byteOffset" : 884528
        },
        {
            "buffer" : 0,
            "byteLength" : 208980,
            "byteOffset" : 1093508
        },
        {
            "buffer" : 0,
            "byteLength" : 139320,
            "byteOffset" : 1302488
        },
        {
            "buffer" : 0,
            "byteLength" : 139320,
            "byteOffset" : 1441808
        },
        {
            "buffer" : 0,
            "byteLength" : 176652,
            "byteOffset" : 1581128
        }
    ],
    "buffers" : [
        {
            "byteLength" : 1757780,
            "uri" : "data:application/octet-stream;base64,"
        }
    ]
}
