{
    "asset" : {
        "generator" : "Khronos glTF Blender I/O v1.5.17",
        "version" : "2.0"
    },
    "scene" : 0,
    "scenes" : [
        {
            "name" : "Ball_Chair",
            "nodes" : [
                5
            ]
        }
    ],
    "nodes" : [
        {
            "mesh" : 0,
            "name" : "padding",
            "rotation" : [
                -0.7071068286895752,
                0,
                0,
                0.7071068286895752
            ],
            "translation" : [
                -0.02379089966416359,
                -23.682100296020508,
                3.9001643657684326
            ]
        },
        {
            "mesh" : 1,
            "name" : "pillow_bottom",
            "rotation" : [
                -0.7071068286895752,
                0,
                0,
                0.7071068286895752
            ],
            "translation" : [
                0.6032230854034424,
                -2.4925994873046875,
                3.4536023139953613
            ]
        },
        {
            "mesh" : 2,
            "name" : "pillow_top",
            "rotation" : [
                -0.7071068286895752,
                0,
                0,
                0.7071068286895752
            ],
            "translation" : [
                -0.045262400060892105,
                9.436700820922852,
                -7.442835807800293
            ]
        },
        {
            "mesh" : 3,
            "name" : "shell",
            "rotation" : [
                -0.7071068286895752,
                0,
                0,
                0.7071068286895752
            ],
            "translation" : [
                -0.26708489656448364,
                8.369001388549805,
                0.04453444480895996
            ]
        },
        {
            "mesh" : 4,
            "name" : "shell_trim",
            "rotation" : [
                -0.7071068286895752,
                0,
                0,
                0.7071068286895752
            ],
            "translation" : [
                -0.26708489656448364,
                8.369001388549805,
                0.04453444480895996
            ]
        },
        {
            "children" : [
                0,
                1,
                2,
                3,
                4
            ],
            "name" : "group",
            "scale" : [
                0.012600000016391277,
                0.012600000016391277,
                0.012600000016391277
            ],
            "translation" : [
                0.023800000548362732,
                0.29409998655319214,
                -0.03359999880194664
            ]
        }
    ],
    "materials" : [
        {
            "doubleSided" : true,
            "name" : "padding",
            "pbrMetallicRoughness" : {
                "baseColorFactor" : [
                    0.5882353186607361,
                    0.5882353186607361,
                    0.5882353186607361,
                    1
                ],
                "metallicFactor" : 0,
                "roughnessFactor" : 0.5
            }
        },
        {
            "doubleSided" : true,
            "name" : "pillows",
            "pbrMetallicRoughness" : {
                "baseColorFactor" : [
                    0.5882353186607361,
                    0.5882353186607361,
                    0.5882353186607361,
                    1
                ],
                "metallicFactor" : 0,
                "roughnessFactor" : 0.5
            }
        },
        {
            "doubleSided" : true,
            "name" : "shell",
            "pbrMetallicRoughness" : {
                "baseColorFactor" : [
                    0.5843137502670288,
                    0.5843137502670288,
                    0.5843137502670288,
                    1
                ],
                "metallicFactor" : 0,
                "roughnessFactor" : 0.5
            }
        },
        {
            "doubleSided" : true,
            "name" : "shell_trim",
            "pbrMetallicRoughness" : {
                "baseColorFactor" : [
                    0.5411764979362488,
                    0,
                    0,
                    1
                ],
                "metallicFactor" : 0,
                "roughnessFactor" : 0.5
            }
        }
    ],
    "meshes" : [
        {
            "name" : "padding",
            "primitives" : [
                {
                    "attributes" : {
                        "POSITION" : 0,
                        "NORMAL" : 1,
                        "TEXCOORD_0" : 2
                    },
                    "indices" : 3,
                    "material" : 0
                }
            ]
        },
        {
            "name" : "pillow_bottom",
            "primitives" : [
                {
                    "attributes" : {
                        "POSITION" : 4,
                        "NORMAL" : 5,
                        "TEXCOORD_0" : 6
                    },
                    "indices" : 7,
                    "material" : 1
                }
            ]
        },
        {
            "name" : "pillow_top",
            "primitives" : [
                {
                    "attributes" : {
                        "POSITION" : 8,
                        "NORMAL" : 9,
                        "TEXCOORD_0" : 10
                    },
                    "indices" : 11,
                    "material" : 1
                }
            ]
        },
        {
            "name" : "shell",
            "primitives" : [
                {
                    "attributes" : {
                        "POSITION" : 12,
                        "NORMAL" : 13,
                        "TEXCOORD_0" : 14
                    },
                    "indices" : 15,
                    "material" : 2
                }
            ]
        },
        {
            "name" : "shell_trim",
            "primitives" : [
                {
                    "attributes" : {
                        "POSITION" : 16,
                        "NORMAL" : 17,
                        "TEXCOORD_0" : 18
                    },
                    "indices" : 19,
                    "material" : 3
                }
            ]
        }
    ],
    "accessors" : [
        {
            "bufferView" : 0,
            "componentType" : 5126,
            "count" : 3463,
            "max" : [
                25.542810440063477,
                21.43495750427246,
                63.98659896850586
            ],
            "min" : [
                -26.0034122467041,
                -13.964971542358398,
                13.511211395263672
            ],
            "type" : "VEC3"
        },
        {
            "bufferView" : 1,
            "componentType" : 5126,
            "count" : 3463,
            "type" : "VEC3"
        },
        {
            "bufferView" : 2,
            "componentType" : 5126,
            "count" : 3463,
            "type" : "VEC2"
        },
        {
            "bufferView" : 3,
            "componentType" : 5123,
            "count" : 13728,
            "type" : "SCALAR"
        },
        {
            "bufferView" : 4,
            "componentType" : 5126,
            "count" : 5070,
            "max" : [
                15.718040466308594,
                11.13933277130127,
                4.523920059204102
            ],
            "min" : [
                -15.718040466308594,
                -11.139333724975586,
                -4.523918151855469
            ],
            "type" : "VEC3"
        },
        {
            "bufferView" : 5,
            "componentType" : 5126,
            "count" : 5070,
            "type" : "VEC3"
        },
        {
            "bufferView" : 6,
            "componentType" : 5126,
            "count" : 5070,
            "type" : "VEC2"
        },
        {
            "bufferView" : 7,
            "componentType" : 5123,
            "count" : 26496,
            "type" : "SCALAR"
        },
        {
            "bufferView" : 8,
            "componentType" : 5126,
            "count" : 5351,
            "max" : [
                15.276908874511719,
                7.396861553192139,
                11.574935913085938
            ],
            "min" : [
                -15.276908874511719,
                -7.3968610763549805,
                -11.574932098388672
            ],
            "type" : "VEC3"
        },
        {
            "bufferView" : 9,
            "componentType" : 5126,
            "count" : 5351,
            "type" : "VEC3"
        },
        {
            "bufferView" : 10,
            "componentType" : 5126,
            "count" : 5351,
            "type" : "VEC2"
        },
        {
            "bufferView" : 11,
            "componentType" : 5123,
            "count" : 26496,
            "type" : "SCALAR"
        },
        {
            "bufferView" : 12,
            "componentType" : 5126,
            "count" : 1360,
            "max" : [
                26.597583770751953,
                19.009387969970703,
                32.85565185546875
            ],
            "min" : [
                -26.597585678100586,
                -19.033605575561523,
                -32.58982467651367
            ],
            "type" : "VEC3"
        },
        {
            "bufferView" : 13,
            "componentType" : 5126,
            "count" : 1360,
            "type" : "VEC3"
        },
        {
            "bufferView" : 14,
            "componentType" : 5126,
            "count" : 1360,
            "type" : "VEC2"
        },
        {
            "bufferView" : 15,
            "componentType" : 5123,
            "count" : 6816,
            "type" : "SCALAR"
        },
        {
            "bufferView" : 16,
            "componentType" : 5126,
            "count" : 366,
            "max" : [
                26.597583770751953,
                10.647819519042969,
                32.85565185546875
            ],
            "min" : [
                -26.597585678100586,
                -19.033605575561523,
                -32.58982467651367
            ],
            "type" : "VEC3"
        },
        {
            "bufferView" : 17,
            "componentType" : 5126,
            "count" : 366,
            "type" : "VEC3"
        },
        {
            "bufferView" : 18,
            "componentType" : 5126,
            "count" : 366,
            "type" : "VEC2"
        },
        {
            "bufferView" : 19,
            "componentType" : 5123,
            "count" : 1344,
            "type" : "SCALAR"
        }
    ],
    "bufferViews" : [
        {
            "buffer" : 0,
            "byteLength" : 41556,
            "byteOffset" : 0
        },
        {
            "buffer" : 0,
            "byteLength" : 41556,
            "byteOffset" : 41556
        },
        {
            "buffer" : 0,
            "byteLength" : 27704,
            "byteOffset" : 83112
        },
        {
            "buffer" : 0,
            "byteLength" : 27456,
            "byteOffset" : 110816
        },
        {
            "buffer" : 0,
            "byteLength" : 60840,
            "byteOffset" : 138272
        },
        {
            "buffer" : 0,
            "byteLength" : 60840,
            "byteOffset" : 199112
        },
        {
            "buffer" : 0,
            "byteLength" : 40560,
            "byteOffset" : 259952
        },
        {
            "buffer" : 0,
            "byteLength" : 52992,
            "byteOffset" : 300512
        },
        {
            "buffer" : 0,
            "byteLength" : 64212,
            "byteOffset" : 353504
        },
        {
            "buffer" : 0,
            "byteLength" : 64212,
            "byteOffset" : 417716
        },
        {
            "buffer" : 0,
            "byteLength" : 42808,
            "byteOffset" : 481928
        },
        {
            "buffer" : 0,
            "byteLength" : 52992,
            "byteOffset" : 524736
        },
        {
            "buffer" : 0,
            "byteLength" : 16320,
            "byteOffset" : 577728
        },
        {
            "buffer" : 0,
            "byteLength" : 16320,
            "byteOffset" : 594048
        },
        {
            "buffer" : 0,
            "byteLength" : 10880,
            "byteOffset" : 610368
        },
        {
            "buffer" : 0,
            "byteLength" : 13632,
            "byteOffset" : 621248
        },
        {
            "buffer" : 0,
            "byteLength" : 4392,
            "byteOffset" : 634880
        },
        {
            "buffer" : 0,
            "byteLength" : 4392,
            "byteOffset" : 639272
        },
        {
            "buffer" : 0,
            "byteLength" : 2928,
            "byteOffset" : 643664
        },
        {
            "buffer" : 0,
            "byteLength" : 2688,
            "byteOffset" : 646592
        }
    ],
    "buffers" : [
        {
            "byteLength" : 649280,
            "uri" : "data:application/octet-stream;base64,"
        }
    ]
}
