{
    "asset" : {
        "generator" : "Khronos glTF Blender I/O v1.5.17",
        "version" : "2.0"
    },
    "scene" : 0,
    "scenes" : [
        {
            "name" : "Arm_Chair",
            "nodes" : [
                0
            ]
        }
    ],
    "nodes" : [
        {
            "mesh" : 0,
            "name" : "Arm_Chair"
        }
    ],
    "materials" : [
        {
            "doubleSided" : true,
            "name" : "Arm_Chair_Default",
            "pbrMetallicRoughness" : {
                "baseColorFactor" : [
                    0.6399999856948853,
                    0.6399999856948853,
                    0.6399999856948853,
                    1
                ],
                "metallicFactor" : 0,
                "roughnessFactor" : 0.5
            }
        }
    ],
    "meshes" : [
        {
            "name" : "Arm_Chair",
            "primitives" : [
                {
                    "attributes" : {
                        "POSITION" : 0,
                        "NORMAL" : 1,
                        "TEXCOORD_0" : 2
                    },
                    "indices" : 3,
                    "material" : 0
                }
            ]
        }
    ],
    "accessors" : [
        {
            "bufferView" : 0,
            "componentType" : 5126,
            "count" : 1079,
            "max" : [
                1.6174999475479126,
                2.359800100326538,
                0.8828999996185303
            ],
            "min" : [
                -1.6174999475479126,
                -9.999999747378752e-05,
                -0.7851999998092651
            ],
            "type" : "VEC3"
        },
        {
            "bufferView" : 1,
            "componentType" : 5126,
            "count" : 1079,
            "type" : "VEC3"
        },
        {
            "bufferView" : 2,
            "componentType" : 5126,
            "count" : 1079,
            "type" : "VEC2"
        },
        {
            "bufferView" : 3,
            "componentType" : 5123,
            "count" : 4620,
            "type" : "SCALAR"
        }
    ],
    "bufferViews" : [
        {
            "buffer" : 0,
            "byteLength" : 12948,
            "byteOffset" : 0
        },
        {
            "buffer" : 0,
            "byteLength" : 12948,
            "byteOffset" : 12948
        },
        {
            "buffer" : 0,
            "byteLength" : 8632,
            "byteOffset" : 25896
        },
        {
            "buffer" : 0,
            "byteLength" : 9240,
            "byteOffset" : 34528
        }
    ],
    "buffers" : [
        {
            "byteLength" : 43768,
            "uri" : "data:application/octet-stream;base64,"
        }
    ]
}
