{
    "asset" : {
        "generator" : "Khronos glTF Blender I/O v1.5.17",
        "version" : "2.0"
    },
    "scene" : 0,
    "scenes" : [
        {
            "name" : "sofa",
            "nodes" : [
                2
            ]
        }
    ],
    "nodes" : [
        {
            "mesh" : 0,
            "name" : "not_clear_obj_0_v1",
            "rotation" : [
                -0.7071068286895752,
                0,
                0,
                0.7071068286895752
            ],
            "scale" : [
                0.02539999969303608,
                0.02539999783039093,
                0.02539999783039093
            ]
        },
        {
            "mesh" : 1,
            "name" : "not_clear_obj_1_v1",
            "translation" : [
                0,
                0,
                -0.04619999974966049
            ]
        },
        {
            "children" : [
                0,
                1
            ],
            "name" : "sofa"
        }
    ],
    "materials" : [
        {
            "doubleSided" : true,
            "name" : "spec__141414_75_01___Default_ANDO1570",
            "pbrMetallicRoughness" : {
                "baseColorFactor" : [
                    1,
                    1,
                    1,
                    1
                ],
                "metallicFactor" : 0,
                "roughnessFactor" : 0.5
            }
        }
    ],
    "meshes" : [
        {
            "name" : "not_clear_obj_0_v1",
            "primitives" : [
                {
                    "attributes" : {
                        "POSITION" : 0,
                        "NORMAL" : 1
                    },
                    "indices" : 2,
                    "material" : 0
                }
            ]
        },
        {
            "name" : "not_clear_obj_1_v1",
            "primitives" : [
                {
                    "attributes" : {
                        "POSITION" : 3,
                        "NORMAL" : 4,
                        "TEXCOORD_0" : 5
                    },
                    "indices" : 6,
                    "material" : 0
                }
            ]
        }
    ],
    "accessors" : [
        {
            "bufferView" : 0,
            "componentType" : 5126,
            "count" : 8180,
            "max" : [
                39.03060531616211,
                28.306835174560547,
                3.450087070465088
            ],
            "min" : [
                -39.030609130859375,
                -28.306835174560547,
                2.0442530512809753e-07
            ],
            "type" : "VEC3"
        },
        {
            "bufferView" : 1,
            "componentType" : 5126,
            "count" : 8180,
            "type" : "VEC3"
        },
        {
            "bufferView" : 2,
            "componentType" : 5123,
            "count" : 48960,
            "type" : "SCALAR"
        },
        {
            "bufferView" : 3,
            "componentType" : 5126,
            "count" : 54189,
            "max" : [
                1.0900728702545166,
                0.9858208298683167,
                0.785310685634613
            ],
            "min" : [
                -1.0776348114013672,
                0.06520530581474304,
                -0.7836411595344543
            ],
            "type" : "VEC3"
        },
        {
            "bufferView" : 4,
            "componentType" : 5126,
            "count" : 54189,
            "type" : "VEC3"
        },
        {
            "bufferView" : 5,
            "componentType" : 5126,
            "count" : 54189,
            "type" : "VEC2"
        },
        {
            "bufferView" : 6,
            "componentType" : 5123,
            "count" : 276144,
            "type" : "SCALAR"
        }
    ],
    "bufferViews" : [
        {
            "buffer" : 0,
            "byteLength" : 98160,
            "byteOffset" : 0
        },
        {
            "buffer" : 0,
            "byteLength" : 98160,
            "byteOffset" : 98160
        },
        {
            "buffer" : 0,
            "byteLength" : 97920,
            "byteOffset" : 196320
        },
        {
            "buffer" : 0,
            "byteLength" : 650268,
            "byteOffset" : 294240
        },
        {
            "buffer" : 0,
            "byteLength" : 650268,
            "byteOffset" : 944508
        },
        {
            "buffer" : 0,
            "byteLength" : 433512,
            "byteOffset" : 1594776
        },
        {
            "buffer" : 0,
            "byteLength" : 552288,
            "byteOffset" : 2028288
        }
    ],
    "buffers" : [
        {
            "byteLength" : 2580576,
            "uri" : "data:application/octet-stream;base64,"
        }
    ]
}
